<?xml version="1.0" encoding="utf-8"?>
<svg version="1.1" id="Layer_1" xmlns="http://www.w3.org/2000/svg" xmlns:xlink="http://www.w3.org/1999/xlink" x="0px" y="0px"
	 width="100px" height="100px" viewBox="-973 719 100 100" style="enable-background:new -973 719 100 100;" xml:space="preserve">
<style type="text/css">
	.st0{fill:url(#SVGID_1_);}
	.st1{fill:url(#SVGID_2_);}
	.st2{fill:url(#SVGID_3_);}
	.st3{fill:url(#SVGID_4_);}
	.st4{fill:url(#SVGID_5_);}
	.st5{fill:url(#SVGID_6_);}
	.st6{fill:url(#SVGID_7_);}
	.st7{fill:url(#SVGID_8_);}
	.st8{fill:url(#SVGID_9_);}
	.st9{fill:url(#SVGID_10_);}
	.st10{fill:url(#SVGID_11_);}
	.st11{fill:url(#SVGID_12_);}
	.st12{fill:url(#SVGID_13_);}
	.st13{fill:url(#SVGID_14_);}
	.st14{fill:url(#SVGID_15_);}
	.st15{fill:url(#SVGID_16_);}
	.st16{fill:url(#SVGID_17_);}
	.st17{fill:url(#SVGID_18_);}
	.st18{fill:url(#SVGID_19_);}
	.st19{fill:url(#SVGID_20_);}
	.st20{fill:url(#SVGID_21_);}
</style>
<g>
	
		<linearGradient id="SVGID_1_" gradientUnits="userSpaceOnUse" x1="-968" y1="717.2981" x2="-968" y2="788.9576" gradientTransform="matrix(1 0 0 -1 0 1540)">
		<stop  offset="0" style="stop-color:#FFF33B"/>
		<stop  offset="0" style="stop-color:#FFD53F"/>
		<stop  offset="0" style="stop-color:#FBBC40"/>
		<stop  offset="0" style="stop-color:#F7A840"/>
		<stop  offset="0" style="stop-color:#F59B40"/>
		<stop  offset="0" style="stop-color:#F3933F"/>
		<stop  offset="0" style="stop-color:#F3903F"/>
		<stop  offset="0.8423" style="stop-color:#ED683C"/>
		<stop  offset="1" style="stop-color:#E93E3A"/>
	</linearGradient>
	<path class="st0" d="M-964,767.2h-8c-0.6,0-1,0.4-1,1V819h10v-50.8C-963,767.6-963.4,767.2-964,767.2z"/>
	
		<linearGradient id="SVGID_2_" gradientUnits="userSpaceOnUse" x1="-968" y1="722.0577" x2="-968" y2="767.8039" gradientTransform="matrix(1 0 0 -1 0 1540)">
		<stop  offset="0" style="stop-color:#FEBC11"/>
		<stop  offset="1" style="stop-color:#F99B1C"/>
	</linearGradient>
	<path class="st1" d="M-973,788.2v30.6h10v-30.6"/>
	
		<linearGradient id="SVGID_3_" gradientUnits="userSpaceOnUse" x1="-968" y1="721.5657" x2="-968" y2="746.5641" gradientTransform="matrix(1 0 0 -1 0 1540)">
		<stop  offset="0" style="stop-color:#FEBC11"/>
		<stop  offset="1" style="stop-color:#FFDE17"/>
	</linearGradient>
	<path class="st2" d="M-973,802.2v16.7h10v-16.7"/>
</g>
<g>
	
		<linearGradient id="SVGID_4_" gradientUnits="userSpaceOnUse" x1="-953" y1="715.9694" x2="-953" y2="813.3497" gradientTransform="matrix(1 0 0 -1 0 1540)">
		<stop  offset="0" style="stop-color:#FFF33B"/>
		<stop  offset="0" style="stop-color:#FFD53F"/>
		<stop  offset="0" style="stop-color:#FBBC40"/>
		<stop  offset="0" style="stop-color:#F7A840"/>
		<stop  offset="0" style="stop-color:#F59B40"/>
		<stop  offset="0" style="stop-color:#F3933F"/>
		<stop  offset="0" style="stop-color:#F3903F"/>
		<stop  offset="0.8423" style="stop-color:#ED683C"/>
		<stop  offset="1" style="stop-color:#E93E3A"/>
	</linearGradient>
	<path class="st3" d="M-949,738.5h-8c-0.6,0-1,0.4-1,1V819h10v-79.5C-948,739-948.4,738.5-949,738.5z"/>
	
		<linearGradient id="SVGID_5_" gradientUnits="userSpaceOnUse" x1="-953" y1="722.5396" x2="-953" y2="796.0572" gradientTransform="matrix(1 0 0 -1 0 1540)">
		<stop  offset="0" style="stop-color:#FEBC11"/>
		<stop  offset="1" style="stop-color:#F99B1C"/>
	</linearGradient>
	<path class="st4" d="M-958,762.5v56.3h10v-56.3"/>
	
		<linearGradient id="SVGID_6_" gradientUnits="userSpaceOnUse" x1="-953" y1="722.0475" x2="-953" y2="774.8174" gradientTransform="matrix(1 0 0 -1 0 1540)">
		<stop  offset="0" style="stop-color:#FEBC11"/>
		<stop  offset="1" style="stop-color:#FFDE17"/>
	</linearGradient>
	<path class="st5" d="M-958,778.5v40.4h10v-40.4"/>
</g>
<g>
	
		<linearGradient id="SVGID_7_" gradientUnits="userSpaceOnUse" x1="-938" y1="716.098" x2="-938" y2="810.9893" gradientTransform="matrix(1 0 0 -1 0 1540)">
		<stop  offset="0" style="stop-color:#FFF33B"/>
		<stop  offset="0" style="stop-color:#FFD53F"/>
		<stop  offset="0" style="stop-color:#FBBC40"/>
		<stop  offset="0" style="stop-color:#F7A840"/>
		<stop  offset="0" style="stop-color:#F59B40"/>
		<stop  offset="0" style="stop-color:#F3933F"/>
		<stop  offset="0" style="stop-color:#F3903F"/>
		<stop  offset="0.8423" style="stop-color:#ED683C"/>
		<stop  offset="1" style="stop-color:#E93E3A"/>
	</linearGradient>
	<path class="st6" d="M-934,732.2h-8c-0.6,0-1,0.4-1,1V819h10v-85.8C-933,732.6-933.4,732.2-934,732.2z"/>
	
		<linearGradient id="SVGID_8_" gradientUnits="userSpaceOnUse" x1="-938" y1="722.4916" x2="-938" y2="793.2779" gradientTransform="matrix(1 0 0 -1 0 1540)">
		<stop  offset="0" style="stop-color:#FEBC11"/>
		<stop  offset="1" style="stop-color:#F99B1C"/>
	</linearGradient>
	<path class="st7" d="M-943,758.6v60.1h10v-60.1"/>
	
		<linearGradient id="SVGID_9_" gradientUnits="userSpaceOnUse" x1="-938" y1="722.0001" x2="-938" y2="772.038" gradientTransform="matrix(1 0 0 -1 0 1540)">
		<stop  offset="0" style="stop-color:#FEBC11"/>
		<stop  offset="1" style="stop-color:#FFDE17"/>
	</linearGradient>
	<path class="st8" d="M-943,776.4v42.5h10v-42.5"/>
</g>
<g>
	
		<linearGradient id="SVGID_10_" gradientUnits="userSpaceOnUse" x1="-923" y1="715.0433" x2="-923" y2="830.3505" gradientTransform="matrix(1 0 0 -1 0 1540)">
		<stop  offset="0" style="stop-color:#FFF33B"/>
		<stop  offset="0" style="stop-color:#FFD53F"/>
		<stop  offset="0" style="stop-color:#FBBC40"/>
		<stop  offset="0" style="stop-color:#F7A840"/>
		<stop  offset="0" style="stop-color:#F59B40"/>
		<stop  offset="0" style="stop-color:#F3933F"/>
		<stop  offset="0" style="stop-color:#F3903F"/>
		<stop  offset="0.8423" style="stop-color:#ED683C"/>
		<stop  offset="1" style="stop-color:#E93E3A"/>
	</linearGradient>
	<path class="st9" d="M-919,725.4h-8c-0.6,0-1,0.4-1,1V819h10v-92.6C-918,725.8-918.4,725.4-919,725.4z"/>
	
		<linearGradient id="SVGID_11_" gradientUnits="userSpaceOnUse" x1="-923" y1="722.8746" x2="-923" y2="815.7641" gradientTransform="matrix(1 0 0 -1 0 1540)">
		<stop  offset="0" style="stop-color:#FEBC11"/>
		<stop  offset="1" style="stop-color:#F99B1C"/>
	</linearGradient>
	<path class="st10" d="M-928,748.9v69.8h10v-69.8"/>
	
		<linearGradient id="SVGID_12_" gradientUnits="userSpaceOnUse" x1="-923" y1="722.3836" x2="-923" y2="794.525" gradientTransform="matrix(1 0 0 -1 0 1540)">
		<stop  offset="0" style="stop-color:#FEBC11"/>
		<stop  offset="1" style="stop-color:#FFDE17"/>
	</linearGradient>
	<path class="st11" d="M-928,764.6v54.2h10v-54.2"/>
</g>
<g>
	
		<linearGradient id="SVGID_13_" gradientUnits="userSpaceOnUse" x1="-908" y1="714.3866" x2="-908" y2="842.4034" gradientTransform="matrix(1 0 0 -1 0 1540)">
		<stop  offset="0" style="stop-color:#FFF33B"/>
		<stop  offset="0" style="stop-color:#FFD53F"/>
		<stop  offset="0" style="stop-color:#FBBC40"/>
		<stop  offset="0" style="stop-color:#F7A840"/>
		<stop  offset="0" style="stop-color:#F59B40"/>
		<stop  offset="0" style="stop-color:#F3933F"/>
		<stop  offset="0" style="stop-color:#F3903F"/>
		<stop  offset="0.8423" style="stop-color:#ED683C"/>
		<stop  offset="1" style="stop-color:#E93E3A"/>
	</linearGradient>
	<path class="st12" d="M-904,734h-8c-0.6,0-1,0.4-1,1v84h10v-84C-903,734.4-903.4,734-904,734z"/>
	
		<linearGradient id="SVGID_14_" gradientUnits="userSpaceOnUse" x1="-908" y1="723.1048" x2="-908" y2="828.6301" gradientTransform="matrix(1 0 0 -1 0 1540)">
		<stop  offset="0" style="stop-color:#FEBC11"/>
		<stop  offset="1" style="stop-color:#F99B1C"/>
	</linearGradient>
	<path class="st13" d="M-913,754.1v64.6h10v-64.6"/>
	
		<linearGradient id="SVGID_15_" gradientUnits="userSpaceOnUse" x1="-908" y1="722.5923" x2="-908" y2="806.4973" gradientTransform="matrix(1 0 0 -1 0 1540)">
		<stop  offset="0" style="stop-color:#FEBC11"/>
		<stop  offset="1" style="stop-color:#FFDE17"/>
	</linearGradient>
	<path class="st14" d="M-913,767.5v51.4h10v-51.4"/>
</g>
<g>
	
		<linearGradient id="SVGID_16_" gradientUnits="userSpaceOnUse" x1="-893" y1="716.5892" x2="-893" y2="801.9707" gradientTransform="matrix(1 0 0 -1 0 1540)">
		<stop  offset="0" style="stop-color:#FFF33B"/>
		<stop  offset="0" style="stop-color:#FFD53F"/>
		<stop  offset="0" style="stop-color:#FBBC40"/>
		<stop  offset="0" style="stop-color:#F7A840"/>
		<stop  offset="0" style="stop-color:#F59B40"/>
		<stop  offset="0" style="stop-color:#F3933F"/>
		<stop  offset="0" style="stop-color:#F3903F"/>
		<stop  offset="0.8423" style="stop-color:#ED683C"/>
		<stop  offset="1" style="stop-color:#E93E3A"/>
	</linearGradient>
	<path class="st15" d="M-889,759.8h-8c-0.6,0-1,0.4-1,1V819h10v-58.2C-888,760.2-888.4,759.8-889,759.8z"/>
	
		<linearGradient id="SVGID_17_" gradientUnits="userSpaceOnUse" x1="-893" y1="722.0577" x2="-893" y2="767.8039" gradientTransform="matrix(1 0 0 -1 0 1540)">
		<stop  offset="0" style="stop-color:#FEBC11"/>
		<stop  offset="1" style="stop-color:#F99B1C"/>
	</linearGradient>
	<path class="st16" d="M-898,783.7v35h10v-35"/>
	
		<linearGradient id="SVGID_18_" gradientUnits="userSpaceOnUse" x1="-893" y1="721.5657" x2="-893" y2="746.5641" gradientTransform="matrix(1 0 0 -1 0 1540)">
		<stop  offset="0" style="stop-color:#FEBC11"/>
		<stop  offset="1" style="stop-color:#FFDE17"/>
	</linearGradient>
	<path class="st17" d="M-898,799.7v19.1h10v-19.1"/>
</g>
<g>
	
		<linearGradient id="SVGID_19_" gradientUnits="userSpaceOnUse" x1="-878" y1="718.7047" x2="-878" y2="763.1356" gradientTransform="matrix(1 0 0 -1 0 1540)">
		<stop  offset="0" style="stop-color:#FFF33B"/>
		<stop  offset="0" style="stop-color:#FFD53F"/>
		<stop  offset="0" style="stop-color:#FBBC40"/>
		<stop  offset="0" style="stop-color:#F7A840"/>
		<stop  offset="0" style="stop-color:#F59B40"/>
		<stop  offset="0" style="stop-color:#F3933F"/>
		<stop  offset="0" style="stop-color:#F3903F"/>
		<stop  offset="0.8423" style="stop-color:#ED683C"/>
		<stop  offset="1" style="stop-color:#E93E3A"/>
	</linearGradient>
	<path class="st18" d="M-874,768.5h-8c-0.6,0-1,0.4-1,1V819h10v-49.5C-873,769-873.4,768.5-874,768.5z"/>
	
		<linearGradient id="SVGID_20_" gradientUnits="userSpaceOnUse" x1="-878" y1="721.6754" x2="-878" y2="745.8634" gradientTransform="matrix(1 0 0 -1 0 1540)">
		<stop  offset="0" style="stop-color:#FEBC11"/>
		<stop  offset="1" style="stop-color:#F99B1C"/>
	</linearGradient>
	<path class="st19" d="M-883,793.2v25.6h10v-25.6"/>
	
		<linearGradient id="SVGID_21_" gradientUnits="userSpaceOnUse" x1="-878" y1="721.3153" x2="-878" y2="732.1174" gradientTransform="matrix(1 0 0 -1 0 1540)">
		<stop  offset="0" style="stop-color:#FEBC11"/>
		<stop  offset="1" style="stop-color:#FFDE17"/>
	</linearGradient>
	<path class="st20" d="M-883,807.4v11.4h10v-11.4"/>
</g>
</svg>
